<?xml version="1.0" encoding="utf-8"?>
<!-- Generator: Adobe Illustrator 16.0.0, SVG Export Plug-In . SVG Version: 6.00 Build 0)  -->
<!DOCTYPE svg PUBLIC "-//W3C//DTD SVG 1.0//EN" "http://www.w3.org/TR/2001/REC-SVG-20010904/DTD/svg10.dtd">
<svg version="1.0" id="Layer_1" xmlns="http://www.w3.org/2000/svg" xmlns:xlink="http://www.w3.org/1999/xlink" x="0px" y="0px"
	 width="100px" height="100px" viewBox="0 0 100 100" enable-background="new 0 0 100 100" xml:space="preserve">
<path fill="#263238" d="M74.54,76.564c0.772-1.133,1.625-2.075,2.364-2.871c0.342-0.363,0.828-0.883,1.019-1.063
	c-0.046-0.409-0.169-1.057-0.258-1.522c-0.317-1.684-0.719-3.776-0.399-6.14c0.309-2.292,1.24-4.163,1.985-5.663
	c0.222-0.447,0.534-1.072,0.688-1.466c-0.153-0.396-0.466-1.022-0.688-1.465c-0.745-1.504-1.675-3.376-1.987-5.685
	c-0.318-2.343,0.084-4.438,0.401-6.119c0.081-0.442,0.198-1.051,0.248-1.463c-0.257-0.323-0.688-0.787-1.003-1.121
	c-1.127-1.209-2.529-2.713-3.472-4.792c-0.958-2.107-1.196-4.188-1.392-5.858c-0.046-0.413-0.111-0.973-0.18-1.375
	c-0.346-0.2-0.84-0.452-1.204-0.638c-1.413-0.72-3.173-1.615-4.733-3.164c-1.554-1.545-2.5-3.298-3.258-4.709
	c-0.163-0.3-0.375-0.694-0.563-1.014c-0.353-0.015-0.78-0.016-1.105-0.016c-1.503-0.005-3.371-0.012-5.357-0.599
	c-1.939-0.575-3.498-1.566-4.752-2.362c-0.264-0.168-0.6-0.38-0.896-0.557c-0.296,0.176-0.632,0.389-0.892,0.555
	c-1.256,0.798-2.817,1.789-4.755,2.361c-1.981,0.589-3.853,0.595-5.354,0.6c-0.327,0-0.752,0.002-1.106,0.016
	c-0.187,0.32-0.397,0.713-0.563,1.016c-0.761,1.411-1.708,3.166-3.263,4.708c-1.558,1.547-3.316,2.443-4.729,3.162
	c-0.367,0.186-0.86,0.438-1.204,0.639c-0.069,0.404-0.132,0.96-0.179,1.374c-0.195,1.672-0.435,3.75-1.392,5.86
	c-0.946,2.078-2.344,3.58-3.469,4.787c-0.342,0.366-0.824,0.884-1.016,1.064c0.046,0.408,0.168,1.057,0.257,1.523
	c0.319,1.682,0.716,3.778,0.399,6.127c-0.309,2.302-1.24,4.177-1.988,5.684c-0.223,0.443-0.531,1.064-0.684,1.459
	c0.152,0.395,0.462,1.016,0.684,1.458c0.748,1.507,1.68,3.379,1.988,5.681c0.318,2.348-0.078,4.443-0.397,6.127
	c-0.086,0.441-0.2,1.051-0.25,1.461c0.261,0.322,0.69,0.787,1.001,1.119c0.744,0.799,1.6,1.746,2.371,2.881l-7.294,1.621
	c-1.083-1.164-2.169-2.347-2.581-3.805c-0.727-2.578,0.917-5.749,0.545-8.516c-0.357-2.656-2.797-5.234-2.797-8.027
	s2.439-5.371,2.797-8.031c0.372-2.765-1.276-5.935-0.547-8.51c0.756-2.688,3.807-4.438,4.911-6.865
	c1.151-2.534,0.531-6.077,2.016-8.269c1.555-2.296,4.991-2.879,6.859-4.733c1.952-1.938,2.692-5.457,4.928-6.84
	c2.299-1.423,5.627-0.406,8.163-1.158C44.984,12.684,47.301,10,50,10c2.697,0,5.017,2.684,7.541,3.432
	c2.539,0.751,5.866-0.263,8.169,1.159c2.233,1.384,2.971,4.904,4.922,6.841c1.868,1.856,5.307,2.44,6.858,4.735
	c1.487,2.195,0.867,5.735,2.019,8.271c1.099,2.424,4.149,4.17,4.907,6.854c0.73,2.576-0.917,5.749-0.547,8.513
	c0.361,2.663,2.797,5.241,2.797,8.034s-2.436,5.371-2.797,8.027c-0.37,2.767,1.277,5.938,0.552,8.509
	c-0.417,1.462-1.505,2.645-2.585,3.813L74.54,76.564z"/>
<path fill="#C49A6C" d="M83.493,78.555l-16.986-3.777C62.93,73.984,60,70.332,60,66.667v-2.063
	c4.082-4.742,7.252-12.278,8.848-21.32c0.375-2.135,0.661-4.346,0.854-6.629c-8.307-0.068-16.075-2.988-21.891-8.26l-4.477-4.056
	l-4.477,4.056c-2.572,2.332-5.544,4.174-8.758,5.545c0.117,2.378,0.353,4.685,0.667,6.923C32.191,50.971,35.556,59.439,40,64.6
	v2.067c0,3.665-2.929,7.317-6.507,8.11l-16.986,3.777C12.928,79.35,10,83.001,10,86.667V90h6.666v-3.333
	c0-0.544,0.757-1.487,1.288-1.604l16.983-3.775c5.701-1.264,10.316-6.26,11.449-11.957C47.559,69.759,48.764,70,50,70
	c1.232,0,2.438-0.247,3.609-0.677c1.129,5.698,5.751,10.698,11.454,11.963l16.979,3.774c0.535,0.117,1.289,1.063,1.289,1.605V90H90
	v-3.333C90,83.001,87.07,79.35,83.493,78.555z M50,63.333c-4.694,0-11.215-9.7-12.91-25.449c2.209-1.291,4.31-2.8,6.242-4.551
	c5.372,4.868,11.969,7.926,18.895,9.232v0.017C59.873,55.529,54.205,63.333,50,63.333z"/>
</svg>
