<?xml version="1.0" encoding="utf-8"?>
<!-- Generator: Adobe Illustrator 16.0.0, SVG Export Plug-In . SVG Version: 6.00 Build 0)  -->
<!DOCTYPE svg PUBLIC "-//W3C//DTD SVG 1.0//EN" "http://www.w3.org/TR/2001/REC-SVG-20010904/DTD/svg10.dtd">
<svg version="1.0" id="Layer_1" xmlns="http://www.w3.org/2000/svg" xmlns:xlink="http://www.w3.org/1999/xlink" x="0px" y="0px"
	 width="100px" height="100px" viewBox="0 0 100 100" enable-background="new 0 0 100 100" xml:space="preserve">
<path fill="#C49A6C" d="M38.872,70.514c-1.159,2.08-3.106,3.76-5.379,4.264l-16.985,3.777C12.928,79.35,10,83.001,10,86.667V90
	h6.667v-3.333c0-0.544,0.757-1.487,1.288-1.604l16.982-3.775c4.488-0.996,8.285-4.313,10.258-8.457L38.872,70.514z"/>
<path fill="#C49A6C" d="M54.807,72.83c1.973,4.145,5.769,7.461,10.26,8.457l16.979,3.775c0.534,0.117,1.289,1.062,1.289,1.604V90H90
	v-3.333c0-3.666-2.93-7.317-6.507-8.112l-16.986-3.775c-2.269-0.504-4.222-2.184-5.381-4.264L54.807,72.83z"/>
<path fill="#263238" d="M67.193,19.785l-5.09,4.698c0.774,1.688,1.229,3.545,1.229,5.518v10l-6.666,6.667H43.333L36.667,40v-6.849
	L30,31.708v24.958c0,5.771,3.521,10.855,8.872,13.848l6.323,2.316c1.544,0.318,3.146,0.504,4.806,0.504s3.263-0.188,4.806-0.504
	l6.319-2.314C66.479,67.521,70,62.438,70,56.667V30C70,26.268,68.975,22.774,67.193,19.785z M63.333,56.667
	c0,5.42-6.106,10-13.333,10c-7.229,0-13.333-4.58-13.333-10v-7.24l3.905,3.906h18.854l3.906-3.906V56.667z"/>
<path fill="#C49A6C" d="M50,10c-13.014,0-24.8,5.098-33.333,13.333c3.866,4,8.459,6.774,13.333,8.375l6.667,1.443
	c9.003,0.941,18.284-1.969,25.437-8.668l5.09-4.698C63.705,13.927,57.313,10,50,10z M39.999,26.667
	c-4.487,0-8.81-1.167-12.642-3.362c6.636-4.318,14.451-6.638,22.643-6.638c2.962,0,5.677,1.004,7.891,2.644
	C53.001,24.047,46.695,26.667,39.999,26.667z"/>
</svg>
