<svg xmlns="http://www.w3.org/2000/svg" viewBox="0 0 48 48"><title>17-Tag</title><g id="_17-Tag" data-name="17-Tag"><path d="M32,6l5,5V45a2.006,2.006,0,0,1-2,2H11a2.006,2.006,0,0,1-2-2V11l5-5Z" style="fill:#fed049"/><circle cx="23" cy="15" r="3" style="fill:#768ba0"/><g id="_Group_" data-name="&lt;Group&gt;"><circle cx="28" cy="36" r="2" style="fill:#f1f2f2"/><circle cx="19" cy="27" r="2" style="fill:#f1f2f2"/><path d="M40,5H39a.915.915,0,0,1-1-1,2.916,2.916,0,0,0-3-3H25a2.916,2.916,0,0,0-3,3v7.142a4,4,0,1,0,2,0V4.012A.919.919,0,0,1,25,3h9.988A.918.918,0,0,1,36,4a2.916,2.916,0,0,0,3,3h1a1,1,0,0,0,0-2ZM25,15a2,2,0,1,1-2-2A2,2,0,0,1,25,15Z" style="fill:#a4b0c0"/><path d="M28.293,25.293l-12,12a1,1,0,1,0,1.414,1.414l12-12a1,1,0,0,0-1.414-1.414Z" style="fill:#768ba0"/><path d="M19,24a3,3,0,1,0,3,3A3,3,0,0,0,19,24Zm0,4a1,1,0,1,1,1-1A1,1,0,0,1,19,28Z" style="fill:#768ba0"/><path d="M25,36a3,3,0,1,0,3-3A3,3,0,0,0,25,36Zm4,0a1,1,0,1,1-1-1A1,1,0,0,1,29,36Z" style="fill:#768ba0"/></g></g></svg>