<?xml version="1.0" encoding="utf-8"?>
<!-- Generator: Adobe Illustrator 16.0.0, SVG Export Plug-In . SVG Version: 6.00 Build 0)  -->
<!DOCTYPE svg PUBLIC "-//W3C//DTD SVG 1.0//EN" "http://www.w3.org/TR/2001/REC-SVG-20010904/DTD/svg10.dtd">
<svg version="1.0" id="Layer_1" xmlns="http://www.w3.org/2000/svg" xmlns:xlink="http://www.w3.org/1999/xlink" x="0px" y="0px"
	 width="100px" height="100px" viewBox="0 0 100 100" enable-background="new 0 0 100 100" xml:space="preserve">
<path fill="#00897B" d="M14.882,38.453l2.946,2.946c-0.732,2.748-1.162,5.62-1.162,8.6c0,10.437,4.809,19.75,12.318,25.862
	L23.333,90h7.183l4.166-10.417c4.59,2.383,9.791,3.75,15.319,3.75c3.183,0,6.255-0.476,9.172-1.31
	C62.105,86.789,67.327,90,73.333,90C82.536,90,90,82.536,90,73.333c0-6.009-3.21-11.228-7.977-14.16
	c0.833-2.92,1.31-5.989,1.31-9.173c0-2.979-0.431-5.854-1.162-8.6l2.946-2.946c6.509-6.511,6.509-17.061,0-23.571
	c-6.508-6.51-17.063-6.51-23.571,0L58.6,17.828c-2.746-0.731-5.621-1.162-8.599-1.162c-2.981,0-5.854,0.43-8.601,1.162l-2.947-2.946
	c-6.514-6.51-17.061-6.51-23.571,0C8.372,21.389,8.372,31.943,14.882,38.453z"/>
<path fill="#E0F2F1" d="M23.333,50c0,14.721,11.94,26.667,26.667,26.667c2.393,0,4.7-0.347,6.907-0.938
	c-0.114-0.787-0.241-1.576-0.241-2.396c0-9.206,7.464-16.667,16.667-16.666c0.819,0,1.608,0.127,2.395,0.241
	c0.593-2.207,0.939-4.516,0.939-6.908c0-14.727-11.948-26.667-26.667-26.667C35.273,23.333,23.333,35.273,23.333,50z"/>
<path fill="#E0F2F1" d="M80.402,33.74c3.899-3.899,3.899-10.244,0-14.143c-1.89-1.889-4.399-2.93-7.069-2.93
	c-2.672,0-5.185,1.042-7.074,2.93l-0.86,0.859c6.043,3.158,10.988,8.102,14.146,14.144L80.402,33.74z"/>
<polygon fill="#E0F2F1" points="63.316,71.857 72.153,80.7 83.349,69.502 79.813,65.967 72.153,73.625 66.852,68.322 "/>
<path fill="#E0F2F1" d="M16.666,26.667c0,2.669,1.042,5.182,2.93,7.073l0.859,0.859c3.154-6.041,8.102-10.989,14.145-14.144
	l-0.859-0.859c-3.899-3.901-10.244-3.901-14.145,0C17.708,21.484,16.666,23.999,16.666,26.667z"/>
<circle fill="#00897B" cx="33.333" cy="50" r="3.333"/>
<path fill="#00897B" d="M50,63.333c1.841,0,3.333,1.491,3.333,3.333S51.842,70,50,70c-1.843,0-3.334-1.492-3.334-3.334
	S48.158,63.333,50,63.333z"/>
<path fill="#00897B" d="M53.333,46.667V30h-6.667v20c0,1.843,1.491,3.333,3.334,3.333h20v-6.667H53.333V46.667z"/>
</svg>
